<svg xmlns="http://www.w3.org/2000/svg" width="800" height="600" viewBox="0 0 800 600">
  <defs>
    <linearGradient id="grad7" x1="0%" y1="0%" x2="100%" y2="100%">
      <stop offset="0%" style="stop-color:#16A085;stop-opacity:1" />
      <stop offset="100%" style="stop-color:#1ABC9C;stop-opacity:1" />
    </linearGradient>
  </defs>
  <rect width="800" height="600" fill="url(#grad7)"/>
  <path d="M 330 200 Q 330 160, 360 160 Q 390 160, 390 200 L 390 270 Q 390 300, 360 320 Q 330 300, 330 270 Z" 
        fill="rgba(255,255,255,0.15)" stroke="rgba(255,255,255,0.4)" stroke-width="2"/>
  <path d="M 410 200 Q 410 160, 440 160 Q 470 160, 470 200 L 470 270 Q 470 300, 440 320 Q 410 300, 410 270 Z" 
        fill="rgba(255,255,255,0.15)" stroke="rgba(255,255,255,0.4)" stroke-width="2"/>
  <circle cx="350" cy="190" r="5" fill="rgba(255,255,255,0.3)"/>
  <circle cx="370" cy="190" r="5" fill="rgba(255,255,255,0.3)"/>
  <circle cx="430" cy="190" r="5" fill="rgba(255,255,255,0.3)"/>
  <circle cx="450" cy="190" r="5" fill="rgba(255,255,255,0.3)"/>
  <text x="400" y="410" font-family="Arial, sans-serif" font-size="48" font-weight="bold" 
        fill="white" text-anchor="middle" opacity="0.9">
    Grupo de Casais
  </text>
  <text x="400" y="470" font-family="Arial, sans-serif" font-size="32" 
        fill="white" text-anchor="middle" opacity="0.7">
    Fortalecendo Famílias
  </text>
</svg>
