<svg xmlns="http://www.w3.org/2000/svg" width="800" height="600" viewBox="0 0 800 600">
  <defs>
    <linearGradient id="grad8" x1="0%" y1="0%" x2="100%" y2="100%">
      <stop offset="0%" style="stop-color:#9B59B6;stop-opacity:1" />
      <stop offset="100%" style="stop-color:#8E44AD;stop-opacity:1" />
    </linearGradient>
  </defs>
  <rect width="800" height="600" fill="url(#grad8)"/>
  <path d="M 300 200 Q 300 160, 330 160 Q 360 160, 360 200 L 360 280 Q 360 310, 330 330 Q 300 310, 300 280 Z" 
        fill="rgba(255,255,255,0.15)" stroke="rgba(255,255,255,0.4)" stroke-width="2"/>
  <path d="M 375 180 Q 375 150, 400 150 Q 425 150, 425 180 L 425 250 Q 425 275, 400 290 Q 375 275, 375 250 Z" 
        fill="rgba(255,255,255,0.15)" stroke="rgba(255,255,255,0.4)" stroke-width="2"/>
  <path d="M 440 200 Q 440 160, 470 160 Q 500 160, 500 200 L 500 280 Q 500 310, 470 330 Q 440 310, 440 280 Z" 
        fill="rgba(255,255,255,0.15)" stroke="rgba(255,255,255,0.4)" stroke-width="2"/>
  <path d="M 330 330 L 400 290 M 470 330 L 400 290" stroke="rgba(255,255,255,0.3)" stroke-width="3"/>
  <text x="400" y="420" font-family="Arial, sans-serif" font-size="48" font-weight="bold" 
        fill="white" text-anchor="middle" opacity="0.9">
    Ação Social
  </text>
  <text x="400" y="480" font-family="Arial, sans-serif" font-size="32" 
        fill="white" text-anchor="middle" opacity="0.7">
    Servindo à Comunidade
  </text>
</svg>
